<svg width="313" height="110" viewBox="0 0 313 110" fill="none" xmlns="http://www.w3.org/2000/svg">
<g opacity="0.1">
<path d="M184.507 90.2992C185.311 90.1379 186.115 89.9765 186.919 89.8151C187.321 89.7344 187.804 89.6537 188.206 89.573L191.905 88.9275C192.709 88.7661 193.513 88.6854 194.236 88.6047C194.719 88.524 195.121 88.4433 195.603 88.4433L199.302 87.8785L206.619 87.0716L213.936 86.5068L217.555 86.3454C226.801 85.9419 236.129 86.184 245.295 86.9102C253.657 87.6364 262.02 88.7661 270.06 90.4606C270.382 90.5413 270.704 90.622 271.025 90.622C271.669 90.7027 272.231 90.8641 272.875 90.9448L275.609 91.5903C276.252 91.7517 276.975 91.9131 277.619 92.0744C278.744 92.3165 279.87 92.5586 280.915 92.8813L285.901 94.1724C286.785 94.4145 287.75 94.6565 288.634 94.8986C289.358 95.06 290.001 95.3021 290.645 95.4635C296.756 97.158 302.143 98.6104 306.646 99.8207C308.736 100.386 310.666 100.87 312.355 101.273C310.746 100.547 308.978 99.7401 306.967 98.8525C302.625 96.9159 297.56 94.7372 291.69 92.2358C289.278 91.1868 286.705 90.1379 283.89 89.0889L282.122 88.3627C280.996 87.8785 279.87 87.5557 278.744 87.1523C278.101 86.9102 277.538 86.7488 276.895 86.5068L274.161 85.5385C273.598 85.3771 272.955 85.135 272.312 84.9736L271.267 84.6509C270.784 84.4895 270.302 84.3281 269.739 84.1667C268.291 83.7633 266.844 83.2791 265.397 82.8757L259.205 81.2619C257.758 80.9391 256.311 80.6163 254.863 80.2936L252.773 79.8901C251.406 79.5674 249.959 79.3253 248.511 79.0832C247.707 78.9218 246.903 78.8411 246.099 78.6798C236.531 77.1466 226.801 76.3397 217.233 76.259H213.454L205.815 76.5011L198.016 77.0659L194.156 77.4694C193.754 77.5501 193.272 77.5501 192.789 77.6308C191.905 77.7115 191.101 77.7922 190.216 77.9535L186.276 78.5991C185.794 78.6798 185.392 78.7604 184.909 78.8411C184.025 79.0025 183.221 79.0832 182.336 79.2446L176.306 80.3743C175.743 80.455 175.019 80.6163 174.376 80.7777L166.657 82.6336L155.4 85.9419L125.247 94.011L120.825 95.1407C119.86 95.3828 118.895 95.6248 117.93 95.8669L110.693 97.4L103.457 98.6104C101.929 98.8525 100.321 99.0945 98.7932 99.2559C97.9087 99.3366 97.1046 99.498 96.2202 99.5787C87.1342 100.628 77.9677 101.192 68.8013 101.192C68.7209 101.192 68.6405 101.192 68.5601 101.192C60.439 101.112 51.9962 100.547 43.6339 99.6594C34.9499 98.5297 28.2761 97.4 22.6476 96.109L18.1448 95.1407L10.1041 93.1234C9.30003 92.8813 8.57636 92.72 7.77229 92.4779C7.37026 92.3972 6.96822 92.2358 6.56618 92.1551L0.937683 90.5413C2.06338 91.1061 3.4303 91.7517 4.79723 92.3972L6.16415 93.0427C6.48578 93.2041 6.88781 93.3655 7.28985 93.6076C8.01351 93.9303 8.73718 94.3338 9.46084 94.5758L14.2049 96.5931C15.1697 96.9966 16.1346 97.4 17.1799 97.8035L21.6023 99.4173C27.2308 101.515 34.0654 103.452 42.5082 105.469C50.9509 107.325 59.5545 108.616 68.0777 109.342C77.8873 110.068 87.6166 110.068 97.0242 109.423C107.316 108.697 117.608 107.164 127.74 104.662C129.589 104.259 131.358 103.775 133.127 103.371C133.851 103.21 134.655 102.968 135.378 102.806C137.871 102.161 140.444 101.515 142.937 100.87L158.134 96.9159L177.029 91.9937C177.673 91.8324 178.316 91.671 178.879 91.5903L184.507 90.2992Z" fill="url(#paint0_linear_1_91)"/>
<path d="M252.049 59.153H266.523V69.9656C266.523 69.9656 261.216 75.4525 252.693 78.0346C252.934 78.1153 253.175 78.1153 253.416 78.196L255.507 78.5995C257.034 78.9222 258.482 79.245 259.929 79.5678L266.121 81.1816C267.648 81.585 269.096 81.9885 270.543 82.4726C271.025 82.634 271.588 82.7954 272.071 82.9568L273.116 83.2795C273.759 83.4409 274.402 83.683 274.965 83.8444L277.699 84.8127C278.342 85.0547 278.905 85.2161 279.548 85.4582C280.031 85.6196 280.513 85.781 281.076 85.9423V45.4355H252.13V59.153H252.049Z" fill="white"/>
<path d="M7.20934 90.1378C7.61137 90.2185 8.01341 90.3799 8.41545 90.4606C9.13911 90.7027 9.86277 90.8641 10.6668 91.1061L18.1447 92.962H39.2918C56.0165 92.962 70.6506 84.7316 70.6506 66.4954C70.6506 66.3341 70.6506 66.1727 70.6506 66.0113C77.4048 82.9564 93.3254 94.4145 113.99 94.4145H114.07L117.608 93.6882C118.573 93.5269 119.458 93.2848 120.423 93.0427L124.765 91.913L154.917 83.844L170.275 79.8901L174.054 79.0025C174.778 78.8411 175.501 78.6798 176.064 78.5991L182.095 77.4694C182.979 77.308 183.864 77.1466 184.748 77.0659C185.231 76.9852 185.633 76.9046 186.115 76.8239L190.055 76.1783C190.94 76.017 191.824 75.9363 192.709 75.8556C193.111 75.7749 193.593 75.7749 193.995 75.6942L197.935 75.2907L198.659 75.2101C199.382 72.9507 199.865 70.4493 199.945 67.6251C200.991 70.2072 202.277 72.5472 203.805 74.8066L205.815 74.6452L213.534 74.4031H217.394C220.69 74.4031 223.987 74.5645 227.284 74.7259C218.68 69.3196 213.052 59.4753 213.052 46.7262C213.052 29.5391 223.907 15.4182 244.169 15.4182C252.451 15.4182 259.205 18.323 263.386 20.7438L274.161 9.93118C269.819 6.78424 259.286 0.409668 242.802 0.409668C215.866 0.409668 196.005 20.9051 196.005 47.3717C196.005 49.4697 196.166 51.4869 196.327 53.4235C193.915 49.6311 190.216 46.6455 185.311 45.1931V44.951C192.226 41.2392 196.327 33.8964 196.327 25.4238C196.327 10.4153 184.668 1.94279 168.345 1.94279H135.861V72.7893L135.459 72.3859C130.876 75.6135 123.478 79.406 114.472 79.406C95.5768 79.406 83.9178 64.1554 83.9178 46.8069C83.9178 29.8618 95.1748 15.4989 114.312 15.4989C115.598 15.4989 116.804 15.5795 118.01 15.7409L130.634 3.07246C125.971 1.53934 120.262 0.409668 113.588 0.409668C86.8928 0.409668 66.9519 20.6631 66.9519 47.1297C66.9519 49.6311 67.1127 52.0518 67.4343 54.4725C65.0221 50.1959 61.1625 46.8069 55.8557 45.1931V44.951C62.7707 41.2392 66.8714 33.8964 66.8714 25.4238C66.791 10.4153 55.132 1.94279 38.8093 1.94279H6.32486V89.8958L7.20934 90.1378ZM152.264 16.2251H168.024C175.662 16.2251 179.522 20.9858 179.522 27.5218C179.522 34.0577 175.421 39.2219 168.265 39.2219H152.264V16.2251ZM152.264 52.5359H169.873C178.155 52.5359 183.06 58.0229 183.06 65.6078C183.06 73.2735 178.316 78.8411 169.873 78.8411H152.264V52.5359ZM22.8083 16.2251H38.5681C46.2068 16.2251 50.0663 20.9858 50.0663 27.5218C50.0663 34.0577 45.9656 39.1413 38.8093 39.1413H22.8083V16.2251ZM22.8083 52.5359H40.4175C48.6994 52.5359 53.6043 58.0229 53.6043 65.6078C53.6043 73.2735 48.8602 78.8411 40.4175 78.8411H22.8083V52.5359Z" fill="white"/>
</g>
<defs>
<linearGradient id="paint0_linear_1_91" x1="-1.52961" y1="93.2158" x2="314.433" y2="93.1116" gradientUnits="userSpaceOnUse">
<stop stop-color="white"/>
<stop offset="1" stop-color="white"/>
</linearGradient>
</defs>
</svg>
