<svg width="18" height="19" viewBox="0 0 18 19" fill="none" xmlns="http://www.w3.org/2000/svg">
<g clip-path="url(#clip0_1_1738)">
<path d="M17.9824 5.87551C17.9402 4.95926 17.7856 4.32934 17.564 3.78351C17.3354 3.20413 16.9838 2.68541 16.5231 2.25419C16.073 1.81626 15.528 1.47598 14.9302 1.26043C14.3572 1.04818 13.7031 0.900013 12.7467 0.859615C11.7831 0.815796 11.4772 0.805664 9.03338 0.805664C6.58954 0.805664 6.28365 0.815796 5.32367 0.856194C4.36726 0.896592 3.70973 1.04489 3.14012 1.25701C2.5352 1.47598 1.99375 1.81284 1.54363 2.25419C1.08651 2.68541 0.731445 3.20755 0.506318 3.78022C0.284763 4.32934 0.1301 4.95583 0.0879321 5.87209C0.0421926 6.79518 0.0316162 7.08823 0.0316162 9.42945C0.0316162 11.7707 0.0421926 12.0637 0.0843609 12.9834C0.126529 13.8996 0.281329 14.5296 0.502884 15.0754C0.731445 15.6548 1.08651 16.1735 1.54363 16.6047C1.99375 17.0426 2.53877 17.3829 3.13655 17.5985C3.70973 17.8107 4.36369 17.9589 5.32023 17.9993C6.28008 18.0398 6.58611 18.0498 9.02994 18.0498C11.4738 18.0498 11.7797 18.0398 12.7397 17.9993C13.6961 17.9589 14.3536 17.8107 14.9232 17.5985C16.1329 17.1504 17.0893 16.2342 17.557 15.0754C17.7784 14.5263 17.9332 13.8996 17.9754 12.9834C18.0176 12.0637 18.0281 11.7707 18.0281 9.42945C18.0281 7.08823 18.0246 6.79518 17.9824 5.87551ZM16.3615 12.916C16.3227 13.7582 16.1751 14.213 16.052 14.5161C15.7495 15.2674 15.1272 15.8636 14.343 16.1534C14.0265 16.2713 13.5484 16.4127 12.6728 16.4497C11.7234 16.4902 11.4386 16.5002 9.03695 16.5002C6.63528 16.5002 6.34697 16.4902 5.401 16.4497C4.52192 16.4127 4.04722 16.2713 3.73075 16.1534C3.34052 16.0152 2.98532 15.7962 2.69701 15.5099C2.39812 15.2303 2.16956 14.8934 2.02534 14.5196C1.90227 14.2164 1.75461 13.7582 1.71601 12.9194C1.67371 12.0099 1.66327 11.737 1.66327 9.43616C1.66327 7.13533 1.67371 6.85913 1.71601 5.95301C1.75461 5.11085 1.90227 4.65608 2.02534 4.3529C2.16956 3.97892 2.39812 3.63876 2.70058 3.36243C2.99232 3.07609 3.34396 2.85713 3.73432 2.71909C4.05079 2.60119 4.52906 2.45973 5.40457 2.42262C6.35397 2.38223 6.63885 2.37209 9.04038 2.37209C11.4456 2.37209 11.7304 2.38223 12.6763 2.42262C13.5554 2.45973 14.0301 2.60119 14.3466 2.71909C14.7368 2.85713 15.092 3.07609 15.3803 3.36243C15.6792 3.64205 15.9078 3.97892 16.052 4.3529C16.1751 4.65608 16.3227 5.11414 16.3615 5.95301C16.4036 6.86255 16.4142 7.13533 16.4142 9.43616C16.4142 11.737 16.4036 12.0065 16.3615 12.916Z" fill="#DDB9AB"/>
<path d="M9.03337 4.99976C6.48061 4.99976 4.40942 6.98385 4.40942 9.42955C4.40942 11.8753 6.48061 13.8593 9.03337 13.8593C11.5863 13.8593 13.6573 11.8753 13.6573 9.42955C13.6573 6.98385 11.5863 4.99976 9.03337 4.99976ZM9.03337 12.303C7.37727 12.303 6.03393 11.0162 6.03393 9.42955C6.03393 7.84286 7.37727 6.55605 9.03337 6.55605C10.6896 6.55605 12.0328 7.84286 12.0328 9.42955C12.0328 11.0162 10.6896 12.303 9.03337 12.303Z" fill="#DDB9AB"/>
<path d="M14.9198 4.82444C14.9198 5.39553 14.4364 5.85859 13.8401 5.85859C13.244 5.85859 12.7607 5.39553 12.7607 4.82444C12.7607 4.25321 13.244 3.79028 13.8401 3.79028C14.4364 3.79028 14.9198 4.25321 14.9198 4.82444Z" fill="#DDB9AB"/>
</g>
<defs>
<clipPath id="clip0_1_1738">
<rect width="18" height="17.2442" fill="white" transform="translate(0 0.805664)"/>
</clipPath>
</defs>
</svg>
