<svg width="18" height="19" viewBox="0 0 18 19" fill="none" xmlns="http://www.w3.org/2000/svg">
<g clip-path="url(#clip0_1_1734)">
<path d="M18 3.85693C17.3306 4.15359 16.6174 4.35022 15.8737 4.4457C16.6388 3.98423 17.2226 3.25907 17.4971 2.385C16.7839 2.81465 15.9964 3.11812 15.1571 3.28748C14.4799 2.55891 13.5146 2.10767 12.4616 2.10767C10.4186 2.10767 8.77387 3.78305 8.77387 5.83693C8.77387 6.13245 8.79862 6.4166 8.85938 6.68712C5.7915 6.53595 3.07687 5.05038 1.25325 2.78737C0.934875 3.34545 0.748125 3.98423 0.748125 4.67189C0.748125 5.96309 1.40625 7.10767 2.38725 7.77032C1.79437 7.75896 1.21275 7.58505 0.72 7.31113C0.72 7.32249 0.72 7.33727 0.72 7.35205C0.72 9.16382 1.99912 10.6687 3.6765 11.0154C3.37612 11.0984 3.04875 11.1381 2.709 11.1381C2.47275 11.1381 2.23425 11.1245 2.01038 11.0745C2.4885 12.551 3.84525 13.6364 5.4585 13.6717C4.203 14.6639 2.60888 15.2618 0.883125 15.2618C0.5805 15.2618 0.29025 15.2482 0 15.2107C1.63462 16.2757 3.57188 16.8838 5.661 16.8838C12.4515 16.8838 16.164 11.2007 16.164 6.27453C16.164 6.10972 16.1584 5.95059 16.1505 5.7926C16.8829 5.26748 17.4982 4.61165 18 3.85693Z" fill="#DDB9AB"/>
</g>
<defs>
<clipPath id="clip0_1_1734">
<rect width="18" height="18.186" fill="white" transform="translate(0 0.402832)"/>
</clipPath>
</defs>
</svg>
