<svg width="15" height="19" viewBox="0 0 15 19" fill="none" xmlns="http://www.w3.org/2000/svg">
<g clip-path="url(#clip0_1_1723)">
<path d="M8.99999 11.7073C8.88888 11.7073 8.66667 11.8209 8.55556 11.9346V15.0035C8.66667 15.1171 8.88888 15.2308 8.99999 15.2308C9.22222 15.2308 9.44445 15.0035 9.44445 14.5488V12.3892C9.33334 11.9346 9.22222 11.7073 8.99999 11.7073Z" fill="#DDB9AB"/>
<path d="M12.3333 11.7073C12 11.7073 11.8889 11.9346 11.8889 12.3892V12.8439H12.7778V12.5029C12.7778 11.9346 12.5555 11.7073 12.3333 11.7073Z" fill="#DDB9AB"/>
<path d="M14.2222 8.18357C13.6667 7.61526 13 7.61526 12.6667 7.5016C10.5555 7.38794 7.44444 7.38794 7.44444 7.38794C7.44444 7.38794 4.33333 7.38794 2.22222 7.5016C1.88889 7.5016 1.33332 7.5016 0.666657 8.18357C0.222212 8.63822 0.111101 9.66119 0.111101 9.66119C0.111101 9.66119 0 10.9115 0 12.1618V13.2984C0 14.5487 0.111101 15.799 0.111101 15.799C0.111101 15.799 0.222212 16.8219 0.666657 17.2766C1.22221 17.8449 1.99999 17.8449 2.33332 17.9585C3.55555 18.0722 7.44444 18.0722 7.44444 18.0722C7.44444 18.0722 10.5555 18.0722 12.6667 17.9585C13 17.9585 13.5556 17.9585 14.2222 17.2766C14.6667 16.8219 14.7778 15.799 14.7778 15.799C14.7778 15.799 14.8889 14.5487 14.8889 13.2984V12.1618C14.8889 10.9115 14.7778 9.66119 14.7778 9.66119C14.7778 9.66119 14.6667 8.63822 14.2222 8.18357ZM3.22222 16.1399H2.22222V10.2295H1.11111V9.20654H4.22223V10.2295H3.11111L3.22222 16.1399ZM6.88889 16.1399H5.99999V15.5716C5.66666 16.0263 5.33333 16.2536 5 16.2536C4.66667 16.2536 4.55556 16.1399 4.44444 15.9126C4.44444 15.799 4.33333 15.458 4.33333 15.117V11.0251H5.22222V14.776C5.22222 15.0033 5.22222 15.117 5.22222 15.117C5.22222 15.2306 5.33333 15.3443 5.44444 15.3443C5.66666 15.3443 5.77777 15.2306 5.99999 14.8897V11.0251H6.88889V16.1399ZM10.3333 14.5487C10.3333 15.0033 10.3333 15.3443 10.2222 15.5716C10.1111 15.9126 9.88889 16.1399 9.44444 16.1399C9.11111 16.1399 8.77777 15.9126 8.55555 15.5716V16.0263H7.66666V9.20654H8.55555V11.4798C8.88889 11.1388 9.11111 10.9115 9.44444 10.9115C9.77778 10.9115 10 11.1388 10.2222 11.4798C10.3333 11.7071 10.3333 12.0481 10.3333 12.5027V14.5487ZM13.6667 13.753H11.8889V14.6623C11.8889 15.117 12 15.3443 12.3333 15.3443C12.5555 15.3443 12.6667 15.2306 12.7778 15.0033C12.7778 15.0033 12.7778 14.776 12.7778 14.3213H13.6667V14.435C13.6667 14.776 13.6667 14.8897 13.6667 15.0033C13.6667 15.2306 13.5555 15.3443 13.4444 15.5716C13.2222 15.9126 12.7778 16.1399 12.3333 16.1399C11.8889 16.1399 11.4444 15.9126 11.2222 15.5716C11 15.3443 10.8889 14.8897 10.8889 14.3213V12.5027C10.8889 11.9344 11 11.5934 11.2222 11.2525C11.4444 10.9115 11.8889 10.6841 12.3333 10.6841C12.7778 10.6841 13.1111 10.9115 13.4444 11.2525C13.6667 11.4798 13.7778 11.9344 13.7778 12.5027L13.6667 13.753Z" fill="#DDB9AB"/>
<path d="M5 6.9334V4.09184L6.22221 0H5.22222L4.55554 2.7279L3.77777 0H2.66666C2.88888 0.681974 3.11111 1.25028 3.33333 1.93226C3.66666 2.95522 3.88888 3.63719 3.99999 4.09184V6.9334H5Z" fill="#DDB9AB"/>
<path d="M7.44445 7.0471C7.88889 7.0471 8.22223 6.81977 8.55556 6.47879C8.77778 6.25146 8.8889 5.79681 8.8889 5.2285V3.4099C8.8889 2.84159 8.77778 2.50061 8.55556 2.15962C8.33334 1.81863 8 1.59131 7.44445 1.59131C7 1.59131 6.66667 1.81863 6.33334 2.15962C6.11111 2.38695 6 2.84159 6 3.4099V5.2285C6 5.79681 6.11111 6.1378 6.33334 6.47879C6.66667 6.81977 7 7.0471 7.44445 7.0471ZM7.00001 3.29624C7.00001 2.84159 7.11111 2.61427 7.44445 2.61427C7.77778 2.61427 7.88889 2.84159 7.88889 3.29624V5.45583C7.88889 5.91048 7.77778 6.1378 7.44445 6.1378C7.11111 6.1378 7.00001 5.91048 7.00001 5.45583V3.29624Z" fill="#DDB9AB"/>
<path d="M12.1111 6.9333V1.70483H11.2222V5.68302C11 6.024 10.7778 6.13767 10.6667 6.13767C10.5556 6.13767 10.4444 6.024 10.4444 5.91034C10.4444 5.91034 10.4444 5.79668 10.4444 5.56936V1.70483H9.55556V5.79668C9.55556 6.13766 9.55556 6.36499 9.66668 6.59232C9.77779 6.81964 10 6.9333 10.2222 6.9333C10.5556 6.9333 10.8889 6.70598 11.2222 6.25133V6.81964C11.2222 6.9333 12.1111 6.9333 12.1111 6.9333Z" fill="#DDB9AB"/>
</g>
<defs>
<clipPath id="clip0_1_1723">
<rect width="15" height="18.186" fill="white"/>
</clipPath>
</defs>
</svg>
