<svg width="86" height="60" viewBox="0 0 86 60" fill="none" xmlns="http://www.w3.org/2000/svg">
<mask id="path-1-outside-1_1_36" maskUnits="userSpaceOnUse" x="0" y="0.684326" width="86" height="59" fill="black">
<rect fill="white" y="0.684326" width="86" height="59"/>
<path fill-rule="evenodd" clip-rule="evenodd" d="M1 58.1257C1.85545 58.1856 2.72695 58.216 3.61367 58.216C20.7267 58.216 32.1654 46.9096 32.1654 29.9501C32.1654 12.9907 20.7267 1.68433 3.61367 1.68433C2.72695 1.68433 1.85545 1.71468 1 1.77461V16.2923C1.80454 16.0048 2.67746 15.857 3.61367 15.857C9.19792 15.857 12.5304 21.1121 12.5304 29.9501C12.5304 38.7882 9.19792 44.0432 3.61367 44.0432C2.67746 44.0432 1.80454 43.8955 1 43.608V58.1257ZM82.9985 5.98392L71.0194 22.7045C79.3957 24.6951 84.7998 30.7464 84.7998 38.7882C84.7998 50.0149 74.8923 57.8178 60.6615 57.8178C46.7009 57.8178 37.3338 50.2538 36.9735 38.7882H54.2666C54.4468 42.2916 56.9687 44.6802 60.7515 44.6802C64.5344 44.6802 67.1464 42.2916 67.1464 38.7882C67.1464 35.2848 64.5344 32.9758 60.3913 32.9758H50.1235V29.1539L58.8601 16.8125H38.6848V3.27677H82.9985V5.98392Z"/>
</mask>
<path fill-rule="evenodd" clip-rule="evenodd" d="M1 58.1257C1.85545 58.1856 2.72695 58.216 3.61367 58.216C20.7267 58.216 32.1654 46.9096 32.1654 29.9501C32.1654 12.9907 20.7267 1.68433 3.61367 1.68433C2.72695 1.68433 1.85545 1.71468 1 1.77461V16.2923C1.80454 16.0048 2.67746 15.857 3.61367 15.857C9.19792 15.857 12.5304 21.1121 12.5304 29.9501C12.5304 38.7882 9.19792 44.0432 3.61367 44.0432C2.67746 44.0432 1.80454 43.8955 1 43.608V58.1257ZM82.9985 5.98392L71.0194 22.7045C79.3957 24.6951 84.7998 30.7464 84.7998 38.7882C84.7998 50.0149 74.8923 57.8178 60.6615 57.8178C46.7009 57.8178 37.3338 50.2538 36.9735 38.7882H54.2666C54.4468 42.2916 56.9687 44.6802 60.7515 44.6802C64.5344 44.6802 67.1464 42.2916 67.1464 38.7882C67.1464 35.2848 64.5344 32.9758 60.3913 32.9758H50.1235V29.1539L58.8601 16.8125H38.6848V3.27677H82.9985V5.98392Z" fill="white" fill-opacity="0.1"/>
<path d="M1 58.1257H0V59.0581L0.930121 59.1232L1 58.1257ZM1 1.77461L0.93012 0.777053L0 0.84221V1.77461H1ZM1 16.2923H0V17.7116L1.33654 17.234L1 16.2923ZM1 43.608L1.33654 42.6663L0 42.1887V43.608H1ZM71.0194 22.7045L70.2064 22.1221L69.3389 23.333L70.7882 23.6774L71.0194 22.7045ZM82.9985 5.98392L83.8114 6.56631L83.9985 6.30516V5.98392H82.9985ZM36.9735 38.7882V37.7882H35.9416L35.974 38.8196L36.9735 38.7882ZM54.2666 38.7882L55.2653 38.7368L55.2165 37.7882H54.2666V38.7882ZM50.1235 32.9758H49.1235V33.9758H50.1235V32.9758ZM50.1235 29.1539L49.3073 28.5761L49.1235 28.8358V29.1539H50.1235ZM58.8601 16.8125L59.6763 17.3903L60.7932 15.8125H58.8601V16.8125ZM38.6848 16.8125H37.6848V17.8125H38.6848V16.8125ZM38.6848 3.27677V2.27677H37.6848V3.27677H38.6848ZM82.9985 3.27677H83.9985V2.27677H82.9985V3.27677ZM0.930121 59.1232C1.80932 59.1848 2.70412 59.216 3.61367 59.216V57.216C2.74977 57.216 1.90159 57.1864 1.06988 57.1281L0.930121 59.1232ZM3.61367 59.216C12.3946 59.216 19.7983 56.3111 25.0103 51.1537C30.2232 45.9952 33.1654 38.6606 33.1654 29.9501H31.1654C31.1654 38.1992 28.3882 44.9974 23.6035 49.732C18.8179 54.4676 11.9457 57.216 3.61367 57.216V59.216ZM33.1654 29.9501C33.1654 21.2397 30.2232 13.905 25.0103 8.74661C19.7983 3.58913 12.3946 0.684326 3.61367 0.684326V2.68433C11.9457 2.68433 18.8179 5.43268 23.6035 10.1682C28.3882 14.9028 31.1654 21.7011 31.1654 29.9501H33.1654ZM3.61367 0.684326C2.70412 0.684326 1.80932 0.715464 0.93012 0.777053L1.06988 2.77216C1.90159 2.7139 2.74977 2.68433 3.61367 2.68433V0.684326ZM0 1.77461V16.2923H2V1.77461H0ZM1.33654 17.234C2.02561 16.9877 2.78396 16.857 3.61367 16.857V14.857C2.57097 14.857 1.58346 15.0218 0.66346 15.3506L1.33654 17.234ZM3.61367 16.857C6.03561 16.857 7.95823 17.9713 9.32124 20.1242C10.7136 22.3236 11.5304 25.6355 11.5304 29.9501H13.5304C13.5304 25.4267 12.681 21.6921 11.0111 19.0544C9.31175 16.3703 6.77598 14.857 3.61367 14.857V16.857ZM11.5304 29.9501C11.5304 34.2647 10.7136 37.5767 9.32125 39.776C7.95823 41.929 6.03561 43.0432 3.61367 43.0432V45.0432C6.77598 45.0432 9.31175 43.53 11.0111 40.8459C12.681 38.2082 13.5304 34.4736 13.5304 29.9501H11.5304ZM3.61367 43.0432C2.78396 43.0432 2.02561 42.9126 1.33654 42.6663L0.663459 44.5497C1.58346 44.8785 2.57097 45.0432 3.61367 45.0432V43.0432ZM0 43.608V58.1257H2V43.608H0ZM71.8323 23.2869L83.8114 6.56631L82.1855 5.40153L70.2064 22.1221L71.8323 23.2869ZM85.7998 38.7882C85.7998 30.2083 80.0005 23.8109 71.2506 21.7316L70.7882 23.6774C78.791 25.5792 83.7998 31.2844 83.7998 38.7882H85.7998ZM60.6615 58.8178C67.9518 58.8178 74.2187 56.8194 78.6862 53.2984C83.17 49.7646 85.7998 44.7234 85.7998 38.7882H83.7998C83.7998 44.0796 81.4758 48.5533 77.4482 51.7276C73.4042 54.9148 67.6019 56.8178 60.6615 56.8178V58.8178ZM35.974 38.8196C36.1631 44.839 38.7273 49.8714 43.0905 53.3817C47.438 56.8794 53.5071 58.8178 60.6615 58.8178V56.8178C53.8552 56.8178 48.2605 54.9742 44.3442 51.8235C40.4436 48.6853 38.1441 44.203 37.973 38.7568L35.974 38.8196ZM54.2666 37.7882H36.9735V39.7882H54.2666V37.7882ZM60.7515 43.6802C59.074 43.6802 57.7507 43.1538 56.8349 42.3118C55.9209 41.4715 55.3433 40.2539 55.2653 38.7368L53.2679 38.8395C53.3701 40.8258 54.1435 42.5542 55.4813 43.7841C56.8171 45.0123 58.6463 45.6802 60.7515 45.6802V43.6802ZM66.1464 38.7882C66.1464 40.2785 65.5974 41.4782 64.6908 42.3118C63.7772 43.1517 62.4327 43.6802 60.7515 43.6802V45.6802C62.8533 45.6802 64.7062 45.0144 66.0444 43.7841C67.3894 42.5475 68.1464 40.8012 68.1464 38.7882H66.1464ZM60.3913 33.9758C62.2828 33.9758 63.7195 34.5019 64.6674 35.3238C65.6012 36.1334 66.1464 37.3017 66.1464 38.7882H68.1464C68.1464 36.7713 67.3856 35.0334 65.9776 33.8127C64.5838 32.6042 62.6429 31.9758 60.3913 31.9758V33.9758ZM50.1235 33.9758H60.3913V31.9758H50.1235V33.9758ZM49.1235 29.1539V32.9758H51.1235V29.1539H49.1235ZM58.0439 16.2347L49.3073 28.5761L50.9397 29.7317L59.6763 17.3903L58.0439 16.2347ZM38.6848 17.8125H58.8601V15.8125H38.6848V17.8125ZM37.6848 3.27677V16.8125H39.6848V3.27677H37.6848ZM82.9985 2.27677H38.6848V4.27677H82.9985V2.27677ZM83.9985 5.98392V3.27677H81.9985V5.98392H83.9985Z" fill="white" mask="url(#path-1-outside-1_1_36)"/>
</svg>
