<svg width="98" height="60" viewBox="0 0 98 60" fill="none" xmlns="http://www.w3.org/2000/svg">
<mask id="path-1-outside-1_1_1381" maskUnits="userSpaceOnUse" x="0" y="0.460938" width="98" height="60" fill="black">
<rect fill="white" y="0.460938" width="98" height="60"/>
<path fill-rule="evenodd" clip-rule="evenodd" d="M1 58.8094C1.97732 58.8699 2.9729 58.9005 3.98583 58.9005C23.5974 58.9005 36.7062 47.4287 36.7062 30.2211C36.7062 13.0135 23.5974 1.54172 3.98583 1.54172C2.9729 1.54172 1.97732 1.57233 1 1.63274V16.3604C1.91939 16.0706 2.91659 15.9218 3.98583 15.9218C10.3854 15.9218 14.2045 21.2537 14.2045 30.2211C14.2045 39.1884 10.3854 44.5204 3.98583 44.5204C2.91659 44.5204 1.91939 44.3715 1 44.0818V58.8094ZM94.858 18.507C94.858 25.7778 92.1743 29.7364 77.6204 42.7431H96.303V56.8808H41.8034V52.6799C69.3629 27.232 73.2852 23.1118 73.2852 19.4764C73.2852 17.2144 71.4273 15.6794 68.7436 15.6794C65.5438 15.6794 63.7891 17.2952 63.7891 20.2035V21.3345H42.7324V20.5267C42.7324 8.40862 52.1253 1.46094 68.6404 1.46094C84.3296 1.46094 94.858 8.32783 94.858 18.507Z"/>
</mask>
<path fill-rule="evenodd" clip-rule="evenodd" d="M1 58.8094C1.97732 58.8699 2.9729 58.9005 3.98583 58.9005C23.5974 58.9005 36.7062 47.4287 36.7062 30.2211C36.7062 13.0135 23.5974 1.54172 3.98583 1.54172C2.9729 1.54172 1.97732 1.57233 1 1.63274V16.3604C1.91939 16.0706 2.91659 15.9218 3.98583 15.9218C10.3854 15.9218 14.2045 21.2537 14.2045 30.2211C14.2045 39.1884 10.3854 44.5204 3.98583 44.5204C2.91659 44.5204 1.91939 44.3715 1 44.0818V58.8094ZM94.858 18.507C94.858 25.7778 92.1743 29.7364 77.6204 42.7431H96.303V56.8808H41.8034V52.6799C69.3629 27.232 73.2852 23.1118 73.2852 19.4764C73.2852 17.2144 71.4273 15.6794 68.7436 15.6794C65.5438 15.6794 63.7891 17.2952 63.7891 20.2035V21.3345H42.7324V20.5267C42.7324 8.40862 52.1253 1.46094 68.6404 1.46094C84.3296 1.46094 94.858 8.32783 94.858 18.507Z" fill="white" fill-opacity="0.1"/>
<path d="M1 58.8094H0V59.7495L0.938299 59.8075L1 58.8094ZM1 1.63274L0.938301 0.634646L0 0.692649V1.63274H1ZM1 16.3604H0V17.7241L1.30061 17.3142L1 16.3604ZM1 44.0818L1.30061 43.128L0 42.7181V44.0818H1ZM77.6204 42.7431L76.954 41.9974L75.0008 43.7431H77.6204V42.7431ZM96.303 42.7431H97.303V41.7431H96.303V42.7431ZM96.303 56.8808V57.8808H97.303V56.8808H96.303ZM41.8034 56.8808H40.8034V57.8808H41.8034V56.8808ZM41.8034 52.6799L41.125 51.9452L40.8034 52.2421V52.6799H41.8034ZM63.7891 21.3345V22.3345H64.7891V21.3345H63.7891ZM42.7324 21.3345H41.7324V22.3345H42.7324V21.3345ZM0.938299 59.8075C1.9366 59.8693 2.95276 59.9005 3.98583 59.9005V57.9005C2.99304 57.9005 2.01804 57.8705 1.0617 57.8113L0.938299 59.8075ZM3.98583 59.9005C13.9827 59.9005 22.4131 56.9753 28.3593 51.7658C34.3175 46.5458 37.7062 39.0956 37.7062 30.2211H35.7062C35.7062 38.5542 32.5405 45.4437 27.0414 50.2615C21.5304 55.0897 13.6006 57.9005 3.98583 57.9005V59.9005ZM37.7062 30.2211C37.7062 21.3466 34.3175 13.8964 28.3593 8.67638C22.4131 3.46684 13.9827 0.541723 3.98583 0.541723V2.54172C13.6006 2.54172 21.5304 5.35248 27.0414 10.1807C32.5405 14.9985 35.7062 21.888 35.7062 30.2211H37.7062ZM3.98583 0.541723C2.95276 0.541723 1.9366 0.572934 0.938301 0.634646L1.0617 2.63084C2.01804 2.57172 2.99304 2.54172 3.98583 2.54172V0.541723ZM0 1.63274V16.3604H2V1.63274H0ZM1.30061 17.3142C2.11489 17.0575 3.00999 16.9218 3.98583 16.9218V14.9218C2.82319 14.9218 1.72389 15.0838 0.699395 15.4067L1.30061 17.3142ZM3.98583 16.9218C6.86947 16.9218 9.11841 18.1043 10.6816 20.2904C12.2734 22.5165 13.2045 25.8609 13.2045 30.2211H15.2045C15.2045 25.6139 14.226 21.8087 12.3084 19.127C10.3621 16.4052 7.50176 14.9218 3.98583 14.9218V16.9218ZM13.2045 30.2211C13.2045 34.5812 12.2734 37.9257 10.6816 40.1518C9.11841 42.3378 6.86947 43.5204 3.98583 43.5204V45.5204C7.50176 45.5204 10.3621 44.0369 12.3084 41.3152C14.226 38.6335 15.2045 34.8283 15.2045 30.2211H13.2045ZM3.98583 43.5204C3.00999 43.5204 2.11489 43.3847 1.30061 43.128L0.699395 45.0355C1.72389 45.3584 2.82319 45.5204 3.98583 45.5204V43.5204ZM0 44.0818V58.8094H2V44.0818H0ZM78.2868 43.4887C85.5536 36.9944 89.9481 32.6821 92.5136 29.0511C95.1357 25.3401 95.858 22.3259 95.858 18.507H93.858C93.858 21.9589 93.2384 24.5594 90.8802 27.897C88.4654 31.3147 84.2411 35.485 76.954 41.9974L78.2868 43.4887ZM96.303 41.7431H77.6204V43.7431H96.303V41.7431ZM97.303 56.8808V42.7431H95.303V56.8808H97.303ZM41.8034 57.8808H96.303V55.8808H41.8034V57.8808ZM40.8034 52.6799V56.8808H42.8034V52.6799H40.8034ZM72.2852 19.4764C72.2852 20.8448 71.6098 22.5125 67.1536 27.2103C62.7561 31.8462 54.9142 39.2125 41.125 51.9452L42.4818 53.4146C56.2521 40.6993 64.1511 33.2817 68.6046 28.5867C72.9995 23.9535 74.2852 21.7435 74.2852 19.4764H72.2852ZM68.7436 16.6794C69.9006 16.6794 70.7948 17.0099 71.3807 17.498C71.952 17.9739 72.2852 18.6414 72.2852 19.4764H74.2852C74.2852 18.0494 73.6895 16.8184 72.6609 15.9614C71.6468 15.1165 70.2702 14.6794 68.7436 14.6794V16.6794ZM64.7891 20.2035C64.7891 18.9541 65.1599 18.1208 65.7415 17.5886C66.337 17.0436 67.3005 16.6794 68.7436 16.6794V14.6794C66.9869 14.6794 65.4731 15.1232 64.3913 16.1131C63.2956 17.1158 62.7891 18.5446 62.7891 20.2035H64.7891ZM64.7891 21.3345V20.2035H62.7891V21.3345H64.7891ZM42.7324 22.3345H63.7891V20.3345H42.7324V22.3345ZM41.7324 20.5267V21.3345H43.7324V20.5267H41.7324ZM68.6404 0.460938C60.2626 0.460938 53.5468 2.22023 48.9 5.6445C44.2109 9.09997 41.7324 14.1766 41.7324 20.5267H43.7324C43.7324 14.7586 45.9504 10.3024 50.0865 7.25456C54.2649 4.17548 60.5031 2.46094 68.6404 2.46094V0.460938ZM95.858 18.507C95.858 13.0223 93.0037 8.46895 88.1781 5.32863C83.3769 2.20419 76.6159 0.460938 68.6404 0.460938V2.46094C76.3541 2.46094 82.7019 4.15113 87.0872 7.00493C91.4481 9.84284 93.858 13.8125 93.858 18.507H95.858Z" fill="white" mask="url(#path-1-outside-1_1_1381)"/>
</svg>
