<svg width="83" height="76" viewBox="0 0 83 76" fill="none" xmlns="http://www.w3.org/2000/svg">
<mask id="path-1-outside-1_1_21" maskUnits="userSpaceOnUse" x="0" y="0.919434" width="83" height="75" fill="black">
<rect fill="white" y="0.919434" width="83" height="75"/>
<path fill-rule="evenodd" clip-rule="evenodd" d="M1 74.1243C2.2784 74.2317 3.58565 74.2862 4.92007 74.2862C26.6605 74.2862 41.1923 59.8128 41.1923 38.1028C41.1923 16.3928 26.6605 1.91943 4.92007 1.91943C3.58565 1.91943 2.2784 1.97396 1 2.08134V20.8601C2.18368 20.3339 3.49408 20.0621 4.92007 20.0621C12.0143 20.0621 16.248 26.7891 16.248 38.1028C16.248 49.4165 12.0143 56.1435 4.92007 56.1435C3.49408 56.1435 2.18368 55.8717 1 55.3455V74.1243ZM45.9516 21.489V3.95794H81.8805V71.7381H57.1651V21.489H45.9516Z"/>
</mask>
<path fill-rule="evenodd" clip-rule="evenodd" d="M1 74.1243C2.2784 74.2317 3.58565 74.2862 4.92007 74.2862C26.6605 74.2862 41.1923 59.8128 41.1923 38.1028C41.1923 16.3928 26.6605 1.91943 4.92007 1.91943C3.58565 1.91943 2.2784 1.97396 1 2.08134V20.8601C2.18368 20.3339 3.49408 20.0621 4.92007 20.0621C12.0143 20.0621 16.248 26.7891 16.248 38.1028C16.248 49.4165 12.0143 56.1435 4.92007 56.1435C3.49408 56.1435 2.18368 55.8717 1 55.3455V74.1243ZM45.9516 21.489V3.95794H81.8805V71.7381H57.1651V21.489H45.9516Z" fill="white" fill-opacity="0.1"/>
<path d="M1 74.1243H0V75.0438L0.916296 75.1208L1 74.1243ZM1 2.08134L0.916299 1.08485L0 1.16182V2.08134H1ZM1 20.8601H0V22.399L1.40622 21.7739L1 20.8601ZM1 55.3455L1.40622 54.4318L0 53.8066V55.3455H1ZM45.9516 3.95794V2.95794H44.9516V3.95794H45.9516ZM45.9516 21.489H44.9516V22.489H45.9516V21.489ZM81.8805 3.95794H82.8805V2.95794H81.8805V3.95794ZM81.8805 71.7381V72.7381H82.8805V71.7381H81.8805ZM57.1651 71.7381H56.1651V72.7381H57.1651V71.7381ZM57.1651 21.489H58.1651V20.489H57.1651V21.489ZM0.916296 75.1208C2.22322 75.2306 3.55841 75.2862 4.92007 75.2862V73.2862C3.6129 73.2862 2.33358 73.2328 1.0837 73.1278L0.916296 75.1208ZM4.92007 75.2862C16.017 75.2862 25.3517 71.5881 31.9149 65.0439C38.4784 58.4994 42.1923 49.1863 42.1923 38.1028H40.1923C40.1923 48.7294 36.6402 57.5079 30.5028 63.6276C24.365 69.7476 15.5636 73.2862 4.92007 73.2862V75.2862ZM42.1923 38.1028C42.1923 27.0194 38.4784 17.7062 31.9149 11.1617C25.3517 4.61752 16.017 0.919434 4.92007 0.919434V2.91943C15.5636 2.91943 24.365 6.45802 30.5028 12.578C36.6402 18.6977 40.1923 27.4762 40.1923 38.1028H42.1923ZM4.92007 0.919434C3.55841 0.919434 2.22323 0.975074 0.916299 1.08485L1.0837 3.07783C2.33358 2.97285 3.6129 2.91943 4.92007 2.91943V0.919434ZM0 2.08134V20.8601H2V2.08134H0ZM1.40622 21.7739C2.45295 21.3085 3.62376 21.0621 4.92007 21.0621V19.0621C3.36441 19.0621 1.91441 19.3592 0.59378 19.9463L1.40622 21.7739ZM4.92007 21.0621C8.09344 21.0621 10.619 22.5409 12.3976 25.3718C14.2055 28.2493 15.248 32.5493 15.248 38.1028H17.248C17.248 32.3426 16.1736 27.6223 14.0911 24.3078C11.9794 20.9468 8.84094 19.0621 4.92007 19.0621V21.0621ZM15.248 38.1028C15.248 43.6563 14.2055 47.9564 12.3976 50.8338C10.619 53.6647 8.09344 55.1435 4.92007 55.1435V57.1435C8.84094 57.1435 11.9794 55.2589 14.0911 51.8978C16.1736 48.5833 17.248 43.863 17.248 38.1028H15.248ZM4.92007 55.1435C3.62376 55.1435 2.45295 54.8971 1.40622 54.4318L0.593782 56.2593C1.9144 56.8464 3.36441 57.1435 4.92007 57.1435V55.1435ZM0 55.3455V74.1243H2V55.3455H0ZM44.9516 3.95794V21.489H46.9516V3.95794H44.9516ZM81.8805 2.95794H45.9516V4.95794H81.8805V2.95794ZM82.8805 71.7381V3.95794H80.8805V71.7381H82.8805ZM57.1651 72.7381H81.8805V70.7381H57.1651V72.7381ZM56.1651 21.489V71.7381H58.1651V21.489H56.1651ZM45.9516 22.489H57.1651V20.489H45.9516V22.489Z" fill="white" mask="url(#path-1-outside-1_1_21)"/>
</svg>
